<svg width="34" height="33" viewBox="0 0 34 33" fill="none" xmlns="http://www.w3.org/2000/svg">
<path d="M16.5194 1.48721C16.6579 1.00445 17.3421 1.00444 17.4806 1.48721L20.4185 11.7242C20.6084 12.3859 21.2243 12.8334 21.9123 12.8095L32.5561 12.4402C33.058 12.4228 33.2694 13.0734 32.8531 13.3543L24.025 19.3118C23.4544 19.6969 23.2191 20.421 23.4544 21.0679L27.0948 31.0766C27.2665 31.5486 26.713 31.9508 26.3172 31.6416L17.9232 25.0866C17.3807 24.6629 16.6193 24.6629 16.0768 25.0866L7.68284 31.6416C7.28699 31.9507 6.73353 31.5486 6.90521 31.0766L10.5456 21.0679C10.7809 20.421 10.5456 19.6969 9.97497 19.3118L1.14689 13.3543C0.730565 13.0734 0.94197 12.4228 1.44392 12.4402L12.0877 12.8095C12.7757 12.8334 13.3916 12.3859 13.5815 11.7242L16.5194 1.48721Z" stroke="#E0DAD1"/>
</svg>
