<svg width="72" height="50" viewBox="0 0 72 50" fill="none" xmlns="http://www.w3.org/2000/svg">
<path d="M2.86364 47.1374C5.31818 45.1018 7.77273 42.1756 10.2273 38.3588C12.6818 34.542 14.0455 30.4707 14.3182 26.145C10.2273 25.8906 6.81818 24.6183 4.09091 22.3282C1.36364 20.0382 0 17.112 0 13.5496C0 9.47837 1.29545 6.23409 3.88636 3.81679C6.61364 1.27226 9.88636 0 13.7045 0C18.0682 0 21.75 1.4631 24.75 4.38931C27.75 7.18829 29.25 11.2595 29.25 16.6031C29.25 23.6005 27.3409 30.0891 23.5227 36.0687C19.7045 41.9211 14.7955 46.5649 8.79545 50L2.86364 47.1374ZM45.8182 47.1374C52.7727 41.285 56.5227 34.2875 57.0682 26.145C53.1136 25.8906 49.7045 24.6183 46.8409 22.3282C44.1136 20.0382 42.75 17.112 42.75 13.5496C42.75 9.47837 44.1136 6.23409 46.8409 3.81679C49.5682 1.27226 52.8409 0 56.6591 0C60.8864 0 64.5 1.4631 67.5 4.38931C70.5 7.18829 72 11.2595 72 16.6031C72 23.6005 70.0909 30.0891 66.2727 36.0687C62.5909 41.9211 57.75 46.5649 51.75 50L45.8182 47.1374Z" fill="#F5F3F0"/>
</svg>
